<svg xmlns="http://www.w3.org/2000/svg" width="512" height="512" viewBox="0 0 512 512">
<rect width="512" height="512" fill="#cbb489"/>
<g stroke="#7c6238" stroke-width="2" opacity="0.35">
<line x1="64" y1="0" x2="64" y2="512"/><line x1="0" y1="64" x2="512" y2="64"/><line x1="128" y1="0" x2="128" y2="512"/><line x1="0" y1="128" x2="512" y2="128"/><line x1="192" y1="0" x2="192" y2="512"/><line x1="0" y1="192" x2="512" y2="192"/><line x1="256" y1="0" x2="256" y2="512"/><line x1="0" y1="256" x2="512" y2="256"/><line x1="320" y1="0" x2="320" y2="512"/><line x1="0" y1="320" x2="512" y2="320"/><line x1="384" y1="0" x2="384" y2="512"/><line x1="0" y1="384" x2="512" y2="384"/><line x1="448" y1="0" x2="448" y2="512"/><line x1="0" y1="448" x2="512" y2="448"/>
</g>
<rect x="8" y="8" width="496" height="496" fill="none" stroke="#7c6238" stroke-width="6"/>
<rect x="106" y="222" width="300" height="68" rx="10" fill="#3a2b1a" opacity="0.92"/>
<text x="256" y="266" font-family="'Apple SD Gothic Neo','Noto Sans KR',system-ui,sans-serif" font-size="34" fill="#f0d9a8" text-anchor="middle">정지(부엌)</text>
<g opacity="0.9"><rect x="394" y="14" width="104" height="26" rx="6" fill="#000" opacity="0.45"/><text x="446" y="32" font-family="'Apple SD Gothic Neo','Noto Sans KR',system-ui,sans-serif" font-size="14" fill="#f0d9a8" text-anchor="middle" letter-spacing="1">PLACEHOLDER</text></g></svg>